<svg xmlns="http://www.w3.org/2000/svg" width="24" height="24" viewBox="0 0 24 24" fill="none" stroke="#B8F2FD" stroke-width="2" stroke-linecap="round" stroke-linejoin="round"><circle cx="12" cy="12" r="3"/><path d="M19.4 15a1.65 1.65 0 0 0 .33 1.82l.06.06-2 2-.06-.06a1.65 1.65 0 0 0-1.82-.33 1.65 1.65 0 0 0-1 1.51V20h-2v-.09a1.65 1.65 0 0 0-1-1.51 1.65 1.65 0 0 0-1.82.33l-.06.06-2-2 .06-.06A1.65 1.65 0 0 0 8.42 15a1.65 1.65 0 0 0-1.51-1H6.82v-2h.09a1.65 1.65 0 0 0 1.51-1 1.65 1.65 0 0 0-.33-1.82l-.06-.06 2-2 .06.06a1.65 1.65 0 0 0 1.82.33h.01a1.65 1.65 0 0 0 1-1.51V5.82h2V6a1.65 1.65 0 0 0 1 1.51 1.65 1.65 0 0 0 1.82-.33l.06-.06 2 2-.06.06a1.65 1.65 0 0 0-.33 1.82v.01a1.65 1.65 0 0 0 1.51 1H20v2h-.09a1.65 1.65 0 0 0-1.51 1Z"/></svg>
